<?xml version="1.0" encoding="iso-8859-1"?>
<!-- Generator: Adobe Illustrator 18.0.0, SVG Export Plug-In . SVG Version: 6.00 Build 0)  -->
<!DOCTYPE svg PUBLIC "-//W3C//DTD SVG 1.1//EN" "http://www.w3.org/Graphics/SVG/1.1/DTD/svg11.dtd">
<svg version="1.1" id="Capa_1" xmlns="http://www.w3.org/2000/svg" xmlns:xlink="http://www.w3.org/1999/xlink" x="0px" y="0px"
	 viewBox="0 0 243 243" style="enable-background:new 0 0 243 243;" xml:space="preserve">
<path d="M211.5,0h-180C30.119,0,29,1.119,29,2.5v180c0,1.381,1.119,2.5,2.5,2.5h14.143v28.291c0,12.538,10.2,22.738,22.738,22.738
	h4.591c1.284,4.039,5.065,6.971,9.527,6.971h78.002c4.462,0,8.243-2.932,9.527-6.971h4.591c12.538,0,22.738-10.2,22.738-22.738V185
	H211.5c1.381,0,2.5-1.119,2.5-2.5V2.5C214,1.119,212.881,0,211.5,0z M75.643,211.737c-1.232,1.165-2.176,2.633-2.691,4.292h-4.57
	c-1.51,0-2.738-1.229-2.738-2.738V185h10V211.737z M147.357,209H95.643v-24h51.715V209z M177.357,213.291
	c0,1.51-1.229,2.738-2.738,2.738h-4.57c-0.516-1.659-1.459-3.127-2.691-4.292V185h10V213.291z M121.5,169.5
	c-42.526,0-77-34.474-77-77s34.474-77,77-77s77,34.474,77,77S164.026,169.5,121.5,169.5z M167.51,93.863
	c2.105-1.135,4.203-2.258,6.279-3.37c2.049-1.168,4.076-2.323,6.031-3.439c1.957-1.123,3.86-2.202,5.64-3.319
	c0.14-0.084,0.276-0.166,0.406-0.255c-2.262-16.313-10.577-30.704-22.623-40.796c-0.166,0.223-0.341,0.469-0.511,0.703
	c-0.749,1.031-1.597,2.186-2.514,3.448c-0.986,1.269-2.04,2.642-3.16,4.096c-1.105,1.466-2.358,2.981-3.652,4.555
	c-1.287,1.577-2.63,3.207-3.986,4.87c-1.414,1.619-2.85,3.275-4.295,4.939c-0.01,0-0.012,0.006-0.014,0.018
	c0.094-1.606,0.195-3.237,0.305-4.889c0.14-2.336,0.178-4.71,0.267-7.088c0.076-2.383,0.152-4.767,0.22-7.115
	c0.014-2.369,0.023-4.692,0.034-6.946c0.014-2.265,0.024-4.454-0.05-6.551c0-0.171-0.011-0.317-0.013-0.483
	c-7.528-3.057-15.752-4.74-24.374-4.74c-7.831,0-15.334,1.385-22.282,3.916c0.117,0.268,0.233,0.547,0.368,0.824
	c0.511,1.164,1.094,2.471,1.729,3.904c0.609,1.479,1.269,3.08,1.966,4.781c0.715,1.693,1.401,3.528,2.121,5.432
	c0.722,1.918,1.462,3.881,2.22,5.885c0.699,2.045,1.412,4.119,2.125,6.195c0,0.008,0.009,0.013,0.011,0.027
	c-1.345-0.895-2.703-1.796-4.087-2.713c-1.945-1.287-3.977-2.511-6.004-3.776c-2.021-1.251-4.051-2.513-6.044-3.751
	c-2.044-1.191-4.053-2.366-6.003-3.498c-1.946-1.141-3.839-2.24-5.69-3.23c-0.15-0.081-0.278-0.146-0.419-0.229
	C69.094,50.974,60.307,65.09,57.488,81.264c0.28,0.027,0.571,0.063,0.865,0.084c1.26,0.139,2.69,0.292,4.251,0.457
	c1.587,0.209,3.302,0.443,5.12,0.696c1.825,0.216,3.755,0.546,5.764,0.878c2.016,0.331,4.098,0.672,6.208,1.021
	c2.118,0.412,4.275,0.832,6.423,1.252c0.011,0,0.022,0,0.026,0c-1.437,0.717-2.896,1.445-4.383,2.188
	c-2.092,1.043-4.163,2.192-6.271,3.303c-2.098,1.129-4.203,2.252-6.272,3.369c-2.056,1.169-4.075,2.322-6.03,3.441
	c-1.967,1.117-3.87,2.203-5.647,3.318c-0.139,0.084-0.27,0.16-0.408,0.249c2.262,16.319,10.579,30.704,22.625,40.801
	c0.166-0.226,0.341-0.468,0.518-0.708c0.749-1.029,1.59-2.184,2.505-3.448c0.986-1.268,2.042-2.64,3.17-4.094
	c1.096-1.468,2.349-2.983,3.643-4.551c1.296-1.581,2.63-3.208,3.988-4.868c1.412-1.621,2.856-3.282,4.293-4.939
	c0.002-0.002,0.012-0.014,0.022-0.02c-0.101,1.605-0.201,3.231-0.305,4.889c-0.139,2.336-0.177,4.704-0.267,7.088
	c-0.076,2.381-0.152,4.77-0.229,7.111c-0.012,2.367-0.022,4.697-0.034,6.949c-0.014,2.262-0.024,4.449,0.052,6.547
	c0,0.17,0.011,0.322,0.011,0.482c7.528,3.058,15.754,4.74,24.374,4.74c7.833,0,15.334-1.379,22.282-3.916
	c-0.114-0.266-0.231-0.545-0.359-0.824c-0.518-1.162-1.103-2.47-1.737-3.898c-0.607-1.484-1.268-3.086-1.957-4.781
	c-0.722-1.693-1.41-3.534-2.121-5.432c-0.722-1.912-1.468-3.887-2.219-5.891c-0.709-2.04-1.42-4.119-2.133-6.189
	c-0.002-0.008-0.002-0.019-0.011-0.031c1.343,0.899,2.701,1.795,4.087,2.717c1.943,1.281,3.983,2.505,6.002,3.77
	c2.021,1.255,4.053,2.518,6.046,3.757c2.045,1.188,4.051,2.362,6.004,3.498c1.952,1.135,3.836,2.24,5.689,3.225
	c0.148,0.083,0.278,0.151,0.417,0.233c12.418-9.711,21.203-23.821,24.03-39.996c-0.28-0.031-0.58-0.064-0.874-0.089
	c-1.26-0.138-2.682-0.285-4.241-0.45c-1.588-0.216-3.312-0.444-5.128-0.703c-1.817-0.21-3.757-0.536-5.764-0.87
	c-2.016-0.336-4.098-0.674-6.207-1.023c-2.121-0.413-4.268-0.837-6.426-1.255c-0.011,0-0.014,0-0.026,0
	c1.436-0.72,2.898-1.447,4.392-2.19C163.331,96.125,165.4,94.969,167.51,93.863z M121.5,109.5c-9.389,0-17-7.611-17-17
	s7.611-17,17-17s17,7.611,17,17S130.889,109.5,121.5,109.5z"/>
<g>
</g>
<g>
</g>
<g>
</g>
<g>
</g>
<g>
</g>
<g>
</g>
<g>
</g>
<g>
</g>
<g>
</g>
<g>
</g>
<g>
</g>
<g>
</g>
<g>
</g>
<g>
</g>
<g>
</g>
</svg>
