<?xml version="1.0" encoding="utf-8"?>
<!-- Generator: Adobe Illustrator 19.2.0, SVG Export Plug-In . SVG Version: 6.00 Build 0)  -->
<svg version="1.1" id="wirelessmouse" xmlns="http://www.w3.org/2000/svg" xmlns:xlink="http://www.w3.org/1999/xlink" x="0px"
	 y="0px" viewBox="0 0 210.6001 210.5996" enable-background="new 0 0 210.6001 210.5996" xml:space="preserve">
<g>
	<path fill="none" d="M68.4632,68.5936l-45.2696,45.2696c-20.2692,20.2716-20.2655,53.258,0.008,73.5332
		c20.2812,20.2776,53.2696,20.2736,73.5352,0.008l45.2696-45.2696c20.2692-20.2696,20.2657-53.258-0.008-73.5332
		C121.7213,48.328,88.7409,48.326,68.4632,68.5936z M126.4401,89.8144l-15.5549,15.5568c-0.7811,0.7812-1.8048,1.1716-2.828,1.1716
		c-1.0236,0-2.0472-0.3904-2.8284-1.1716c-1.5624-1.5608-1.5624-4.094,0-5.6564l15.5548-15.5564
		c1.5624-1.5628,4.0936-1.5628,5.6565,0C128.0025,85.7188,128.0025,88.252,126.4401,89.8144z"/>
	<path d="M62.8073,62.9376l-45.2696,45.2696c-23.3868,23.3904-23.3828,61.4528,0.0076,84.8456
		c11.6992,11.6972,27.0664,17.5468,42.43,17.5468c15.3632,0,30.7224-5.8456,42.4176-17.5392l45.2696-45.2692
		c23.3908-23.3888,23.3868-61.4512-0.0076-84.846C124.2642,39.5528,86.1976,39.5488,62.8073,62.9376z M142.0065,142.1348
		l-45.2696,45.2696c-20.2656,20.2656-53.254,20.2696-73.5352-0.008c-20.2735-20.2752-20.2772-53.2616-0.008-73.5332l45.2696-45.2696
		c20.2776-20.2676,53.258-20.2656,73.5352,0.008C162.2722,88.8768,162.2757,121.8652,142.0065,142.1348z"/>
	<path d="M120.7837,84.1584l-15.5548,15.5564c-1.5624,1.5624-1.5624,4.0956,0,5.6564c0.7812,0.7812,1.8048,1.1716,2.8284,1.1716
		c1.0232,0,2.0469-0.3904,2.828-1.1716l15.5549-15.5568c1.5623-1.5624,1.5623-4.0956,0-5.656
		C124.8773,82.5956,122.3461,82.5956,120.7837,84.1584z"/>
	<path d="M142.6001,20c-2.2109,0-4,1.7912-4,4s1.7891,4,4,4c22.0547,0,40,17.9432,40,40c0,2.2088,1.7891,4,4,4
		c2.2107,0,4-1.7912,4-4C190.6001,41.5332,169.0688,20,142.6001,20z"/>
	<path d="M142.6001,0c-2.2109,0-4,1.7912-4,4s1.7891,4,4,4c33.0859,0,60,26.916,60,60c0,2.2088,1.7891,4,4,4c2.2107,0,4-1.7912,4-4
		C210.6001,30.504,180.0961,0,142.6001,0z"/>
</g>
</svg>
